# xmcd
# 
# Track frame offsets:
#     150
#     16687
#     31912
#     49725
#     64650
#     84900
# 
# Disc length: 1322
# 
# Revision: 3
# Processed by: cddbd v1.5.2PL0 Copyright (c) Steve Scherf et al.
# Submitted via: fre:ac v1.0.17
# 
DISCID=39052806
DTITLE=Eighth Wonder - Brilliant Dreams
DYEAR=1987
DGENRE=BritPop
TTITLE0=When The Phone Stops Ringing
TTITLE1=Loser In Love
TTITLE2=Open Your Mind
TTITLE3=Stay With Me
TTITLE4=Will You Remember?
TTITLE5=Having It All
EXTD=
EXTT0=
EXTT1=
EXTT2=
EXTT3=
EXTT4=
EXTT5=
PLAYORDER=
